<?xml version="1.0" encoding="UTF-8"?>
<!DOCTYPE svg PUBLIC "-//W3C//DTD SVG 1.1//EN" "http://www.w3.org/Graphics/SVG/1.1/DTD/svg11.dtd">
<!-- Creator: CorelDRAW -->
<svg xmlns="http://www.w3.org/2000/svg" xml:space="preserve" width="20px" height="20px" style="shape-rendering:geometricPrecision; text-rendering:geometricPrecision; image-rendering:optimizeQuality; fill-rule:evenodd; clip-rule:evenodd"
viewBox="0 0 640 640"
 xmlns:xlink="http://www.w3.org/1999/xlink">
 <defs>
  <style type="text/css">
   <![CDATA[
    .fil0 {fill:#c70008}
   ]]>
  </style>
 </defs>
 <g id="Layer_x0020_1">
  <metadata id="CorelCorpID_0Corel-Layer"/>
  <rect xmlns="http://www.w3.org/2000/svg" id="svg_12" height="400" width="420" y="100" x="100" fill-opacity="null" stroke-opacity="null" stroke-width="null" stroke="null" fill="#5a0000"/>
  <path class="fil0" d="M320 0c176.695,0 320,143.305 320,320 0,176.695 -143.305,320 -320,320 -176.695,0 -320,-143.305 -320,-320 0,-176.695 143.305,-320 320,-320zm82.3593 167.199c18.8506,-19.1459 49.5006,-19.2286 68.4575,-0.188979 18.9451,19.0396 19.0278,49.9967 0.188979,69.1308l-82.7254 83.8947 82.8081 83.9774c18.6853,18.9924 18.4372,49.7605 -0.566936,68.7174 -19.0042,18.9569 -49.5597,18.9097 -68.2449,-0.0826782l-82.2412 -83.3987 -82.3947 83.5522c-18.8506,19.1459 -49.5006,19.2286 -68.4575,0.188979 -18.9451,-19.0396 -19.0278,-49.9967 -0.188979,-69.1308l82.7254 -83.8947 -82.8081 -83.9774c-18.6853,-18.9924 -18.4372,-49.7605 0.566936,-68.7174 19.0042,-18.9569 49.5597,-18.9097 68.2449,0.0826782l82.2412 83.3987 82.3947 -83.5522z"/>
 </g>
</svg>