<?xml version="1.0" encoding="UTF-8"?>
<!DOCTYPE svg PUBLIC "-//W3C//DTD SVG 1.1//EN" "http://www.w3.org/Graphics/SVG/1.1/DTD/svg11.dtd">
<!-- Creator: CorelDRAW -->
<svg xmlns="http://www.w3.org/2000/svg" xml:space="preserve" width="20" height="20" shape-rendering="geometricPrecision" text-rendering="geometricPrecision" image-rendering="optimizeQuality" fill-rule="evenodd" clip-rule="evenodd"
viewBox="0 0 640 640"
 xmlns:xlink="http://www.w3.org/1999/xlink">
 <g id="Layer_x0020_1">
  <metadata id="CorelCorpID_0Corel-Layer"/>
  <rect xmlns="http://www.w3.org/2000/svg" id="svg_12" height="640" width="640" y="0" x="0" fill-opacity="null" stroke-opacity="null" stroke-width="null" stroke="null" fill="white"/>
  <path fill="orange" d="M266.968 95.1626l33.6146 160.183 159.876 35.0201 -141.958 81.4616 16.1104 162.876 -121.336 -109.82 -149.931 65.6465 66.9575 -149.352 -108.781 -122.316 162.746 17.5514 82.7018 -141.25zm91.2058 401.048l138.852 141.226c3.34256,3.38981 8.87019,3.40162 12.2364,0.0472447l53.9652 -53.4928c3.38981,-3.33075 3.40162,-8.84657 0.0590558,-12.2246l-189.758 -192.451c-3.34256,-3.38981 -12.1183,-4.80715 -12.2364,-0.0472447l-3.11815 116.942zm82.0168 52.1463l63.3551 64.7488c1.94884,1.98428 5.16148,1.98428 7.13395,0.0236223l31.4413 -31.1461c1.96065,-1.96065 1.98428,-5.16148 0.0236223,-7.13395l-64.8669 -65.7764 -37.0871 39.2839zm-337.693 -376.115l-2.66932 0c0,-21.7562 -8.1379,-40.7603 -24.3783,-57.0125 -16.2522,-16.2404 -35.2563,-24.3783 -57.0007,-24.3783l0 -2.66932c21.7444,0 40.7485,-8.12608 57.0007,-24.4019 16.2404,-16.2994 24.3783,-35.3036 24.3783,-56.9653l2.66932 0c0,21.7326 8.12608,40.7485 24.3783,56.9889 16.264,16.2522 35.2563,24.3783 57.0007,24.3783l0 2.66932c-21.7444,0 -40.7367,8.1379 -57.0007,24.3783 -16.2522,16.2522 -24.3783,35.2563 -24.3783,57.0125zm393.773 82.4656l-4.09848 0c0,-33.4847 -12.5198,-62.7409 -37.5477,-87.7806 -25.0279,-25.0161 -54.2723,-37.5241 -87.7688,-37.5241l0 -4.11029c33.4965,0 62.7409,-12.5198 87.7688,-37.595 25.0279,-25.0869 37.5477,-54.3432 37.5477,-87.7097l4.09848 0c0,33.4847 12.5198,62.7409 37.5359,87.7688 25.0279,25.0161 54.2841,37.5359 87.757,37.5359l0 4.11029c-33.4729,0 -62.7291,12.508 -87.757,37.5241 -25.0161,25.0397 -37.5359,54.2959 -37.5359,87.7806z"/>
  <rect xmlns="http://www.w3.org/2000/svg" id="svg_12" height="272" width="243" y="371.4375" x="357.5" fill-opacity="null" stroke-opacity="null" stroke-width="null" stroke="null" fill="white"/>
 </g>
</svg>
