<svg xmlns="http://www.w3.org/2000/svg" height="20px" viewBox="18 4 70 62">
	<rect height="40" width="40" y="15" x="30" fill="#35e498"/>
	<path fill="#006f3c" d="M80.4,32.3  c1.9,1.7,1.9,4.6,0,6.2l-1.2,1.1c-1.3,1.2-1.8,3.1-1.1,4.7l0.6,1.5c1,2.3-0.3,4.9-2.7,5.6l-1.6,0.4c-1.7,0.5-2.9,2-3,3.8l-0.1,1.6  c-0.1,2.2-2,3.9-4.1,3.9c-0.2,0-0.5,0-0.7-0.1l-1.6-0.3c-0.2,0-0.5-0.1-0.7-0.1c-1.5,0-2.9,0.8-3.6,2.1l-0.8,1.4  c-0.8,1.4-2.2,2.1-3.6,2.1c-0.8,0-1.7-0.3-2.4-0.8l-1.3-1c-0.7-0.5-1.6-0.8-2.4-0.8c-0.8,0-1.7,0.3-2.4,0.8l-1.3,0.9  c-0.7,0.5-1.6,0.8-2.4,0.8c-1.5,0-2.9-0.8-3.6-2.2l-0.8-1.4c-0.7-1.4-2.1-2.2-3.6-2.2c-0.2,0-0.5,0-0.7,0.1L33.4,61  c-0.2,0-0.5,0.1-0.7,0.1c-2.2,0-4-1.7-4.1-3.9l-0.1-1.6c-0.1-1.8-1.3-3.3-3-3.8l-1.6-0.4c-2.4-0.7-3.6-3.3-2.7-5.6l0.6-1.5  c0.7-1.6,0.3-3.5-1.1-4.7l-1.2-1.1c-1.9-1.7-1.9-4.6,0-6.2l1.2-1.1c1.3-1.2,1.8-3.1,1.1-4.7l-0.6-1.5c-1-2.3,0.3-4.9,2.7-5.6  l1.6-0.4c1.7-0.5,2.9-2,3-3.8l0.1-1.6c0.1-2.2,2-3.9,4.1-3.9c0.2,0,0.5,0,0.7,0.1l1.6,0.3c0.2,0,0.5,0.1,0.7,0.1  c1.5,0,2.9-0.8,3.6-2.1l0.8-1.4c0.8-1.4,2.2-2.1,3.6-2.1c0.8,0,1.7,0.3,2.4,0.8l1.3,1c0.7,0.5,1.6,0.8,2.4,0.8  c0.8,0,1.7-0.3,2.4-0.8L53.8,5c0.7-0.5,1.6-0.8,2.4-0.8c1.5,0,2.9,0.8,3.6,2.2l0.8,1.4c0.7,1.4,2.1,2.2,3.6,2.2c0.2,0,0.5,0,0.7-0.1  l1.6-0.3c0.2,0,0.5-0.1,0.7-0.1c2.2,0,4,1.7,4.1,3.9l0.1,1.6c0.1,1.8,1.3,3.3,3,3.8l1.6,0.4c2.4,0.7,3.6,3.3,2.7,5.6l-0.6,1.5  c-0.7,1.6-0.3,3.5,1.1,4.7L80.4,32.3z M64.3,34c0,0,1.4-2.1-0.4-3.7c-2.2-2-8.2-0.7-8.2-0.7l0,0c-0.4,0.1-0.9,0.2-1.3,0.3  c0,0-2.1,1,0-5.3s-1.4-7.3-2.8-7.3c-1.5,0-1,3.1-1,3.1s-3.1,8.6-6.1,10.8c-0.8,0.8-1.2,1.8-1.4,2.4C42.6,33.3,42,33,41.3,33h-4  c-1.5,0-2.7,1.2-2.7,2.7v10.6c0,1.5,1.2,2.7,2.7,2.7h4c0.5,0,1.1-0.2,1.5-0.4c0.1-0.1,0.6-0.6,0.6-2.1v-6.6c0,0,0,8.2,4.6,8.7  c1.6,0.1,3.7,0.2,5.7,0.2c1.8,0.1,3.8,0.2,5.4-0.2c5.3-1.1,4-4.8,4-4.8c2.9-2.1,1.2-4.8,1.2-4.8C66.8,36.2,64.3,34,64.3,34z"/>
</svg>
